<svg xmlns="http://www.w3.org/2000/svg" viewBox="0 0 31.75 25" width="31.75" height="25">

	<path d="M29.52,6.63h-0.87v9.54c0,1.49-0.87,2.83-2.6,2.83H9.03v0.45c0,1.31,1.5,2.64,3.03,2.64h13.01L30.05,25
		l-0.72-2.92h0.19c1.54,0,2.23-1.32,2.23-2.64V8.89C31.75,7.58,31.06,6.63,29.52,6.63z"/>
	<path d="M23.51,0H3.74C2,0,0,1.54,0,3.03v11.95c0,1.37,1.7,2.36,3.32,2.51L2.26,21.5l6.78-3.98h14.46
		c1.74,0,3.34-1.05,3.34-2.54V5.31V3.03C26.85,1.54,25.24,0,23.51,0z M6.76,10.09c-0.99,0-1.79-0.8-1.79-1.78
		c0-0.98,0.8-1.78,1.79-1.78c0.99,0,1.79,0.8,1.79,1.78C8.54,9.29,7.74,10.09,6.76,10.09z M13.43,10.09c-0.99,0-1.79-0.8-1.79-1.78
		c0-0.98,0.8-1.78,1.79-1.78s1.79,0.8,1.79,1.78C15.21,9.29,14.41,10.09,13.43,10.09z M20.1,10.09c-0.99,0-1.79-0.8-1.79-1.78
		c0-0.98,0.8-1.78,1.79-1.78c0.98,0,1.79,0.8,1.79,1.78C21.88,9.29,21.08,10.09,20.1,10.09z"/>

</svg>
