<svg xmlns="http://www.w3.org/2000/svg" viewBox="0 0 56.15 25.01" width="56.15" height="25.01">

	
		
			<path d="M53.19,0c-0.11,0.27-0.29,0.39-0.44,0.52c-2.33,2.15-4.66,4.3-6.99,6.45c-1.3,1.2-2.59,2.39-3.88,3.59
				c-0.56,0.52-1.15,1.02-1.77,1.47c-0.5,0.36-1,0.74-1.52,1.13c-0.13-0.08-0.25-0.15-0.37-0.23c-0.65-0.48-1.3-0.97-1.94-1.46
				c-0.18-0.14-0.35-0.29-0.52-0.44c-3.8-3.5-7.59-7-11.38-10.5c-0.15-0.13-0.33-0.24-0.4-0.45C24.02,0.05,24.05,0,24.08,0
				C33.76,0,43.43,0,53.19,0z"/>
			<path d="M23.93,24.89c4.04-3.73,8.07-7.44,12.11-11.17c0.15,0.08,0.28,0.14,0.39,0.22c0.55,0.41,1.1,0.82,1.65,1.23
				c0.15,0.11,0.3,0.22,0.49,0.35c0.84-0.57,1.62-1.22,2.45-1.8c0.1,0.06,0.17,0.09,0.23,0.15c3.98,3.67,7.96,7.34,11.92,11
				c-0.05,0.17-0.17,0.14-0.27,0.14c-0.15,0.01-0.29,0-0.44,0c-9.26,0-18.52,0-27.78,0c-0.19,0-0.38,0-0.56-0.01
				C24.06,25,24.01,24.94,23.93,24.89z"/>
			<path d="M21.08,24.61c-0.14-0.36-0.12-0.69-0.12-1.01c0-4.15,0-8.3,0-12.45c0-3.14,0-6.29,0-9.43
				c0-0.33,0.04-0.65,0.08-0.98c0.01-0.09,0.08-0.18,0.12-0.27c0.08,0.04,0.15,0.06,0.19,0.1c4.33,3.93,8.65,7.86,12.98,11.79
				c0.04,0.04,0.06,0.1,0.09,0.14C34.07,12.93,21.56,24.28,21.08,24.61z"/>
			<path d="M42.61,12.51c4.46-4.05,8.86-8.06,13.23-12.03c0.2,0.02,0.21,0.14,0.22,0.23C56.1,1,56.14,1.28,56.15,1.57
				c0,7.4,0,14.79,0,22.19c0,0.18,0,0.37-0.02,0.55c-0.01,0.09-0.06,0.18-0.11,0.3c-0.1-0.06-0.17-0.1-0.23-0.15
				C51.42,20.5,47.04,16.53,42.61,12.51z"/>
		
	
	
		<path d="M16.98,5.8H1.3C0.58,5.8,0,5.22,0,4.5l0-0.37c0-0.72,0.58-1.3,1.3-1.3h15.68c0.72,0,1.3,0.58,1.3,1.3V4.5
			C18.27,5.22,17.69,5.8,16.98,5.8z"/>
		<path d="M17.19,10.95H6.5c-0.6,0-1.09-0.49-1.09-1.09V9.08c0-0.6,0.49-1.09,1.09-1.09h10.69
			c0.6,0,1.09,0.49,1.09,1.09v0.78C18.27,10.46,17.79,10.95,17.19,10.95z"/>
		<path d="M16.98,16.09h-4.91c-0.72,0-1.3-0.58-1.3-1.3v-0.37c0-0.72,0.58-1.3,1.3-1.3h4.91c0.72,0,1.3,0.58,1.3,1.3
			v0.37C18.27,15.51,17.69,16.09,16.98,16.09z"/>
	

</svg>
