<svg xmlns="http://www.w3.org/2000/svg" viewBox="0 0 27.08 25.01" width="27.08" height="25.01">

	<path d="M3.65,8.93c0,0,0.65,0.06,0.68,1.04s0.16,7.23,0,7.78c-0.16,0.55-1.65,0.42-2.1,0.31s-1.47-0.73-1.39-2.22
		c0,0-0.81-0.15-0.82-0.79c-0.02-0.65,0-3.02,0-3.02s0.06-0.62,0.78-0.76c0,0-0.2-1.71,1.55-2.25L3.65,8.93z"/>
	<path d="M23.43,8.93c0,0-0.65,0.06-0.68,1.04c-0.03,0.97-0.16,7.23,0,7.78c0.16,0.55,1.65,0.42,2.1,0.31
		s1.47-0.73,1.39-2.22c0,0,0.81-0.15,0.82-0.79c0.02-0.65,0-3.02,0-3.02s-0.06-0.62-0.78-0.76c0,0,0.2-1.71-1.55-2.25L23.43,8.93z"
		/>
	
		<path d="M25.1,11.74l-0.99-0.27c0.13-0.5-0.42-3.86-2.67-6.7c-2.03-2.56-4.74-3.82-8.05-3.76
			C9.84,1.1,7.07,2.57,5.15,5.37C3.71,7.5,3.31,9.64,3.31,9.66L2.3,9.49c0.02-0.09,0.42-2.35,1.98-4.66C5.74,2.69,8.49,0.11,13.37,0
			c3.63-0.08,6.71,1.38,8.92,4.2C24.63,7.2,25.33,10.89,25.1,11.74z"/>
	
	
		<path d="M12.27,23.94c-2.5-0.04-4.84-1.15-6.76-3.21c-1.44-1.54-2.13-3.05-2.16-3.12l0.78-0.35l-0.39,0.18l0.39-0.18
			c0.01,0.01,0.68,1.47,2.03,2.91c1.78,1.9,3.84,2.88,6.13,2.92L12.27,23.94z"/>
	
	<path d="M11.53,23.4c0,0,0.41-1.12,2.02-0.99s1.63,1.42,1.39,1.79c-0.24,0.37-1.15,1.21-2.65,0.6
		C11.28,24.32,11.53,23.4,11.53,23.4z"/>
	<path d="M17.39,6.5c-4.4-2.97-10.12,0.22-10.77,4.46c-0.64,4.24,1.46,6.15,3.72,7.76c2.26,1.62,3.2,2.75,3.2,2.75
		c0.75-1.19,2.68-2.17,5.08-4.22C21.02,15.2,21.79,9.48,17.39,6.5z M10.14,13.53c-0.55,0-1-0.45-1-1c0-0.56,0.45-1.01,1-1.01
		c0.56,0,1.01,0.45,1.01,1.01C11.14,13.08,10.69,13.53,10.14,13.53z M13.54,13.53c-0.55,0-1.01-0.45-1.01-1
		c0-0.56,0.46-1.01,1.01-1.01c0.56,0,1.01,0.45,1.01,1.01C14.55,13.08,14.1,13.53,13.54,13.53z M16.98,13.53
		c-0.56,0-1.01-0.45-1.01-1c0-0.56,0.45-1.01,1.01-1.01s1.01,0.45,1.01,1.01C17.98,13.08,17.53,13.53,16.98,13.53z"/>

</svg>
