<svg xmlns="http://www.w3.org/2000/svg" viewBox="0 0 21.85 25" width="21.85" height="25">

	<circle cx="8.76" cy="13.35" r="0.63"/>
	
		<path d="M8.2,5.88C7.28,4.54,4.54,1.04,2.86,0.89c-0.28-0.03-0.5,0.05-0.69,0.24C2.03,1.27,1.99,1.4,2.02,1.57
			C2.17,2.4,3.75,3.58,4.82,4.06L4.45,4.87C3.48,4.43,1.4,3.08,1.15,1.73C1.07,1.27,1.2,0.85,1.53,0.51c0.37-0.38,0.86-0.55,1.4-0.5
			c2.4,0.22,5.64,4.84,6,5.37L8.2,5.88z"/>
	
	<path d="M3.35,5.18L0.4,8.29C0.11,8.59-0.03,8.99,0.01,9.4l1.24,13.61c0.07,0.82,0.78,1.44,1.6,1.4l3.85-0.16
		c0.37-0.01,0.61-0.39,0.47-0.73L1.72,10.33C1.5,9.8,1.52,9.2,1.76,8.67L3.35,5.18z"/>
	
		<path d="M15.61,15.47c-0.35,0-0.63,0.28-0.63,0.63c0,0.35,0.28,0.63,0.63,0.63c0.35,0,0.63-0.28,0.63-0.63
			C16.25,15.75,15.96,15.47,15.61,15.47z"/>
		<path d="M21.71,18.3L15.95,4.87c-0.26-0.62-0.78-1.09-1.42-1.29l-6.93-2.2C7.12,1.23,6.62,1.33,6.25,1.61
			C7,2.3,8.2,3.49,8.75,4.55c0.74,0.08,1.32,0.71,1.32,1.47c0,0.82-0.66,1.48-1.48,1.48c-0.82,0-1.48-0.66-1.48-1.48
			c0-0.29,0.08-0.55,0.22-0.78C7.23,5.09,6.38,3.88,5.4,2.95L2.57,8.53c-0.3,0.6-0.33,1.3-0.08,1.91l5.52,13.49
			c0.36,0.88,1.36,1.3,2.24,0.94l10.52-4.31C21.67,20.19,22.08,19.18,21.71,18.3z M6.52,13.35c0-1.23,1-2.23,2.24-2.23
			s2.24,1,2.24,2.23c0,1.23-1,2.23-2.24,2.23S6.52,14.58,6.52,13.35z M9.08,19.64L13.63,9l1.64,0.7l-4.56,10.64L9.08,19.64z
			 M15.61,18.33c-1.24,0-2.24-1-2.24-2.23c0-1.23,1-2.23,2.24-2.23s2.24,1,2.24,2.23C17.85,17.33,16.85,18.33,15.61,18.33z"/>
	

</svg>
